<?xml version="1.0" encoding="utf-8"?>
<!-- Generator: Adobe Illustrator 16.0.0, SVG Export Plug-In . SVG Version: 6.00 Build 0)  -->
<!DOCTYPE svg PUBLIC "-//W3C//DTD SVG 1.1//EN" "http://www.w3.org/Graphics/SVG/1.1/DTD/svg11.dtd">
<svg version="1.1" id="Layer_1" xmlns="http://www.w3.org/2000/svg" xmlns:xlink="http://www.w3.org/1999/xlink" x="0px" y="0px"
	 width="164.459px" height="54.25px" viewBox="0 0 164.459 54.25" enable-background="new 0 0 164.459 54.25" xml:space="preserve">
<path fill="#EC2227" d="M108.813,49.743c0,2.49,2.084,4.51,4.656,4.51h47.334c2.57,0,3.654-2.02,3.654-4.51V4.51
	c0-2.489-1.385-3.361-2.576-3.974c-1.313-0.676-3.063-0.723-5.088,0.117l-44.029,21.49c-1.391,0.639-3.951,1.561-3.951,4.262V49.743
	z"/>
<path fill="#010101" d="M99.647,49.743c0,2.49-2.084,4.51-4.656,4.51H4.656C2.084,54.25,0,52.233,0,49.743V4.51
	c0-2.489,2.084-4.509,4.656-4.509c0,0,41.348,0,42.491,0c1.922,0,4.094-0.109,7.358,1.547l41.301,20.626
	c1.279,0.608,3.842,1.53,3.842,4.231V49.743L99.647,49.743z"/>
<path fill="#FFFFFF" d="M26.162,8.285L23.7,14.298c-3.629-1.97-5.53-2.488-8.943-2.333v13.583h10.152l-2.765,5.443
	c-3.716-1.295-4.925-1.502-7.388-1.709v14.204c4.147,0,6.437,0,13.307-2.801l-2.376,6.481H8.708c0.562-2.283,1.21-5.028,1.21-10.008
	V18.135c0-2.645-0.302-6.479-1.21-9.851L26.162,8.285L26.162,8.285z"/>
<path fill="#FFFFFF" d="M32.166,16.424c0-4.563-0.519-6.688-0.864-8.036l6.308-0.104c8.338-0.156,12.27,5.859,12.27,11.094
	c0,6.326-4.666,9.437-6.135,10.371c2.895,6.117,6.87,11.871,10.715,17.42h-4.45c-4.364-4.512-6.351-7.313-13.048-17.99v9.592
	c0,3.008,0.043,4.252,0.907,8.398h-6.567c0.691-3.838,0.864-6.688,0.864-10.06V16.424z M36.961,28.606
	c3.067-1.037,7.993-2.694,7.993-8.656c0-2.903-1.512-7.569-7.993-8.347V28.606z"/>
<path fill="#FFFFFF" d="M64.782,14.671c-0.604,1.906-1.209,3.684-1.209,8.578v14.949c0,3.684,0.259,5.547,1.209,8.971H57.48
	c0.648-2.039,1.253-3.898,1.253-9.316V22.383c0-3.682-0.433-5.72-1.253-7.712H64.782z"/>
<path fill="#FFFFFF" d="M90.005,30.893c-1.521-0.646-3.686-1.678-6.762-1.678c-5.771,0-9.593,2.676-9.593,7.363
	c0,4.297,3.233,7.188,9.316,7.188c3.975,0,6.451-1.541,7.867-2.412l-0.436,4.211c-1.66,0.677-4.01,1.603-8.087,1.603
	c-10.058,0-12.996-6.459-12.996-10.25c0-5.617,5.807-11.178,15.104-11.178c2.696,0,4.286,0.449,5.565,0.814L90.005,30.893z"/>
<path fill="#FFFFFF" d="M133.699,26.096l-2.462,4.213c-3.629-1.084-5.53-1.371-8.943-1.285v6.285h10.152l-2.764,3.602
	c-3.717-0.856-4.927-0.994-7.39-1.133v6.818c4.146,0,6.438,0,13.308-1.545l-2.375,4.473h-16.979
	c0.562-1.256,1.209-2.771,1.209-5.516V31.524c0-1.459-0.302-3.572-1.209-5.43h17.453V26.096z"/>
<path fill="#FFFFFF" d="M155.729,15.025l-2.461,5.026c-3.629-1.646-5.529-2.08-8.942-1.95v11.353h10.151l-2.766,4.549
	c-3.715-1.082-4.925-1.256-7.387-1.43v11.873c4.146,0,6.438,0,13.307-2.341l-2.377,5.416h-16.979
	c0.563-1.905,1.211-4.203,1.211-8.36V23.258c0-2.21-0.303-5.415-1.211-8.232L155.729,15.025L155.729,15.025z"/>
<path fill="#EC2227" d="M134.69,0.026c-0.57,0-59.267,0-59.836,0c-1.047,0-1.824,1.633-0.289,2.388
	c1.706,0.854,21.984,11.029,26.137,13.084c1.222,0.604,2.219,1.08,3.915,1.08c1.695,0,2.693-0.476,3.915-1.08
	c4.151-2.055,24.636-12.299,26.341-13.153C136.409,1.591,135.737,0.026,134.69,0.026z"/>
</svg>
