<svg xmlns="http://www.w3.org/2000/svg" width="164.459" height="54.25"><path fill="#EC2227" d="M108.813 49.743c0 2.49 2.084 4.51 4.656 4.51h47.334c2.57 0 3.654-2.02 3.654-4.51V4.51c0-2.489-1.385-3.361-2.576-3.974-1.313-.676-3.063-.723-5.088.117l-44.029 21.49c-1.391.639-3.951 1.561-3.951 4.262v23.338z"/><path fill="#010101" d="M99.647 49.743c0 2.49-2.084 4.51-4.656 4.51H4.656C2.084 54.25 0 52.233 0 49.743V4.51C0 2.021 2.084.001 4.656.001h42.491c1.922 0 4.094-.109 7.358 1.547l41.301 20.626c1.279.608 3.842 1.53 3.842 4.231v23.338h-.001z"/><path fill="#FFF" d="M26.162 8.285L23.7 14.298c-3.629-1.97-5.53-2.488-8.943-2.333v13.583h10.152l-2.765 5.443c-3.716-1.295-4.925-1.502-7.388-1.709v14.204c4.147 0 6.437 0 13.307-2.801l-2.376 6.481H8.708c.562-2.283 1.21-5.028 1.21-10.008V18.135c0-2.645-.302-6.479-1.21-9.851l17.454.001zm6.004 8.139c0-4.563-.519-6.688-.864-8.036l6.308-.104c8.338-.156 12.27 5.859 12.27 11.094 0 6.326-4.666 9.437-6.135 10.371 2.895 6.117 6.87 11.871 10.715 17.42h-4.45c-4.364-4.512-6.351-7.313-13.048-17.99v9.592c0 3.008.043 4.252.907 8.398h-6.567c.691-3.838.864-6.688.864-10.06V16.424zm4.795 12.182c3.067-1.037 7.993-2.694 7.993-8.656 0-2.903-1.512-7.569-7.993-8.347v17.003zm27.821-13.935c-.604 1.906-1.209 3.684-1.209 8.578v14.949c0 3.684.259 5.547 1.209 8.971H57.48c.648-2.039 1.253-3.898 1.253-9.316v-15.47c0-3.682-.433-5.72-1.253-7.712h7.302zm25.223 16.222c-1.521-.646-3.686-1.678-6.762-1.678-5.771 0-9.593 2.676-9.593 7.363 0 4.297 3.233 7.188 9.316 7.188 3.975 0 6.451-1.541 7.867-2.412l-.436 4.211c-1.66.677-4.01 1.603-8.087 1.603-10.058 0-12.996-6.459-12.996-10.25 0-5.617 5.807-11.178 15.104-11.178 2.696 0 4.286.449 5.565.814l.022 4.339zm43.694-4.797l-2.462 4.213c-3.629-1.084-5.53-1.371-8.943-1.285v6.285h10.152l-2.764 3.602c-3.717-.856-4.927-.994-7.39-1.133v6.818c4.146 0 6.438 0 13.308-1.545l-2.375 4.473h-16.979c.562-1.256 1.209-2.771 1.209-5.516V31.524c0-1.459-.302-3.572-1.209-5.43h17.453v.002zm22.03-11.071l-2.461 5.026c-3.629-1.646-5.529-2.08-8.942-1.95v11.353h10.151l-2.766 4.549c-3.715-1.082-4.925-1.256-7.387-1.43v11.873c4.146 0 6.438 0 13.307-2.341l-2.377 5.416h-16.979c.563-1.905 1.211-4.203 1.211-8.36V23.258c0-2.21-.303-5.415-1.211-8.232l17.454-.001z"/><path fill="#EC2227" d="M134.69.026H74.854c-1.047 0-1.824 1.633-.289 2.388 1.706.854 21.984 11.029 26.137 13.084 1.222.604 2.219 1.08 3.915 1.08 1.695 0 2.693-.476 3.915-1.08 4.151-2.055 24.636-12.299 26.341-13.153 1.536-.754.864-2.319-.183-2.319z"/></svg>